<?xml version="1.0" encoding="UTF-8"?>
<svg viewBox="0 0 28 28" version="1.1" xmlns="http://www.w3.org/2000/svg" xmlns:xlink="http://www.w3.org/1999/xlink">
    <!-- Generator: Sketch 63.1 (92452) - https://sketch.com -->
    <title>Add</title>
    <desc>Created with Sketch.</desc>
    <g id="Screens" stroke="none" stroke-width="1" fill="none" fill-rule="evenodd">
        <g id="to-do's" transform="translate(-314.000000, -235.000000)" fill="#FFFFFF">
            <g id="Add" transform="translate(314.000000, 235.000000)">
                <path d="M14,0 C21.7319865,4.73447626e-16 28,6.2680135 28,14 C28,21.7319865 21.7319865,28 14,28 C6.2680135,28 9.46895252e-16,21.7319865 0,14 C-9.46895252e-16,6.2680135 6.2680135,1.42034288e-15 14,0 L14,0 Z M26.7272727,14 C26.7272727,21.0290786 21.0290786,26.7272727 14,26.7272727 C6.97092137,26.7272727 1.27272727,21.0290786 1.27272727,14 C1.27272727,6.97092137 6.97092137,1.27272727 14,1.27272727 C21.0290786,1.27272727 26.7272727,6.97092137 26.7272727,14 Z M21,14.6363636 L14.6363636,14.6363636 L14.6363636,21 L13.3636364,21 L13.3636364,14.6363636 L7,14.6363636 L7,13.3636364 L13.3636364,13.3636364 L13.3636364,7 L14.6363636,7 L14.6363636,13.3636364 L21,13.3636364 L21,14.6363636 Z"></path>
            </g>
        </g>
    </g>
</svg>