<?xml version="1.0" encoding="UTF-8"?>
<svg width="16px" height="21px" viewBox="0 0 16 21" version="1.1" xmlns="http://www.w3.org/2000/svg" xmlns:xlink="http://www.w3.org/1999/xlink">
    <!-- Generator: Sketch 63.1 (92452) - https://sketch.com -->
    <title>delete</title>
    <desc>Created with Sketch.</desc>
    <g id="Symbols" stroke="none" stroke-width="1" fill="none" fill-rule="evenodd">
        <g id="list" transform="translate(-302.000000, -13.000000)" fill="#9b9b9b">
            <g id="delete" transform="translate(302.000000, 13.000000)">
                <g id="Graphics-/-Navbar-&amp;-Toolbar-Icons-/-Blue-/-Trash">
                    <path d="M11.5559506,2.37037037 C11.5559506,1.49767901 10.8483951,0.790123457 9.9757037,0.790123457 L6.02508642,0.790123457 C5.15239506,0.790123457 4.44483951,1.49767901 4.44483951,2.37037037 L4.44483951,3.16049383 L0.49382716,3.16049383 L0.49382716,3.95061728 L1.38271605,3.95061728 L2.07367901,19.3580247 C2.07367901,19.3580247 2.32217284,20.5432099 3.2588642,20.5432099 L7.60454321,20.5432099 L8.39466667,20.5432099 L12.7403457,20.5432099 C13.6774321,20.5432099 13.9259259,19.3580247 13.9259259,19.3580247 L14.5844938,3.95061728 L15.5061728,3.95061728 L15.5061728,3.16049383 L11.5559506,3.16049383 L11.5559506,2.37037037 Z M5.23496296,2.37037037 C5.23496296,1.93382716 5.64793416,1.58024691 6.15677366,1.58024691 L9.84401646,1.58024691 C10.352856,1.58024691 10.7658272,1.93422222 10.7658272,2.37037037 L10.7658272,3.16049383 L5.23496296,3.16049383 L5.23496296,2.37037037 L5.23496296,2.37037037 Z M12.7407407,19.7526914 L8.39506173,19.7526914 L7.60493827,19.7526914 L3.25925926,19.7526914 C3.25925926,19.7526914 2.9305679,19.5733333 2.86419753,18.9625679 C2.79822222,18.3518025 2.17283951,3.95022222 2.17283951,3.95022222 L13.7611852,3.95022222 C13.7615802,3.95022222 13.2021728,18.3518025 13.1361975,18.9625679 C13.0698272,19.5733333 12.7407407,19.7526914 12.7407407,19.7526914 Z M11.1608889,5.5308642 L10.3707654,5.5308642 L9.9757037,18.1728395 L10.7658272,18.1728395 L11.1608889,5.5308642 Z M6.02508642,18.1728395 L5.63002469,5.5308642 L4.83950617,5.5308642 L5.2345679,18.1728395 L6.02508642,18.1728395 Z M7.60493827,5.5308642 L8.39506173,5.5308642 L8.39506173,18.1728395 L7.60493827,18.1728395 L7.60493827,5.5308642 Z" id="Trash-Icon"></path>
                </g>
            </g>
        </g>
    </g>
</svg>